<svg width="18" height="25" viewBox="0 0 18 25" fill="none" xmlns="http://www.w3.org/2000/svg">
<g clip-path="url(#clip0_253_1779)">
<path d="M8.51198 0.613979C8.60087 0.658622 8.6342 0.692104 8.72309 0.714425C8.80087 0.736747 8.91198 0.79255 8.9342 0.725586C8.96753 0.658622 8.92309 0.569336 8.86753 0.491211C8.77865 0.346122 8.7342 0.31264 8.61198 0.111747C8.58976 0.0671038 8.56753 0.0224609 8.52309 0.0224609C8.52309 0.0224609 8.51198 0.16755 8.46753 0.256836C8.4342 0.334961 8.34531 0.390765 8.35642 0.446568C8.36753 0.502372 8.42309 0.569336 8.51198 0.613979Z" fill="white"/>
<path d="M17.8008 10.1784C17.7008 10.3124 17.6564 10.5802 17.5119 10.8034C17.3119 11.1159 17.023 11.4954 16.8786 11.4954C16.8008 11.4954 16.7786 11.3168 16.7786 11.3168C16.7786 11.3168 16.6786 11.0155 16.8453 10.636C16.9675 10.3682 17.0341 10.2901 17.1897 10.0892C17.3341 9.89943 17.423 9.79898 17.523 9.59809C17.6119 9.41952 17.6341 9.38604 17.6897 9.10702C17.7008 9.04006 17.6786 8.89497 17.6119 8.90613C17.523 8.90613 17.2786 9.44184 17.023 9.74318C16.7786 10.0222 16.323 10.3793 16.323 10.3793C16.323 10.3793 16.2786 10.4128 16.2786 10.3235C16.2675 10.2454 16.2564 10.011 16.3008 9.79898C16.3453 9.58693 16.4119 9.37488 16.6008 9.05122C16.8119 8.68291 17.0786 8.42622 17.2119 8.29229C17.2675 8.23648 17.4341 8.13604 17.3453 8.08023C17.2675 8.03559 17.0341 8.23648 16.8564 8.37041C16.6341 8.53782 16.5564 8.58247 16.3341 8.85032C16.1119 9.11818 16.0564 9.22979 16.0564 9.22979C16.0564 9.22979 15.8453 9.57577 15.7897 9.91059C15.7341 10.2454 15.7341 10.4351 15.7341 10.4351C15.7341 10.4351 15.7341 10.7365 15.7675 10.9151C15.7897 11.1048 15.8675 11.395 15.8675 11.395C15.8675 11.395 15.9786 11.7186 16.023 11.9195C16.0675 12.1204 16.1453 12.7119 16.1453 12.7119C16.1453 12.7119 16.2008 13.136 16.1675 13.5378C16.1341 13.9396 16.1008 14.174 16.0564 14.2968C16.0119 14.4195 15.8897 14.7432 15.6897 14.9664C15.5008 15.1784 15.4564 15.2119 15.4564 15.2119C15.4564 15.2119 15.2564 15.3793 15.0897 15.4686C14.923 15.5579 14.6786 15.6695 14.5675 15.703C14.4564 15.7253 14.3008 15.7365 14.2897 15.7365H14.1453L14.1008 15.703L14.0786 15.6137C14.0786 15.6137 13.9675 15.1784 13.8341 14.8994C13.723 14.6651 13.4897 14.3414 13.4897 14.3414C13.4897 14.3414 13.0897 13.7945 12.7786 13.4932C12.423 13.136 12.023 12.8682 11.7786 12.6784C11.6897 12.6115 11.4897 12.4887 11.4897 12.4887C11.4897 12.4887 10.6786 11.674 10.3897 11.0267C10.1897 10.5802 10.0564 10.2566 10.1119 9.7655C10.123 9.65389 10.1675 9.44184 10.1897 9.44184L10.3341 9.48648C10.3453 9.49764 10.4786 9.62041 10.6008 9.66506C10.6675 9.68738 10.7897 9.7097 10.7897 9.7097C10.7897 9.7097 10.8897 9.72086 10.9453 9.73202C11.0008 9.75434 11.1008 9.78782 11.1675 9.82131C11.2341 9.85479 11.3341 9.92175 11.3341 9.92175L11.523 10.0668L11.723 10.2231C11.723 10.2231 11.8341 10.3012 11.8675 10.3124C11.9008 10.3235 11.923 10.3347 11.9341 10.3347H11.9786C11.9786 10.3347 12.023 10.3235 12.0341 10.2789C12.0453 10.2231 11.9786 10.2677 11.8786 10.1561C11.7675 10.0557 11.723 9.96639 11.723 9.96639C11.723 9.96639 11.7008 9.87711 11.6119 9.77666C11.523 9.67622 11.4119 9.58693 11.4119 9.58693C11.4119 9.58693 11.3341 9.53113 11.223 9.49764C11.1119 9.46416 11.0786 9.46416 11.0675 9.41952C11.0564 9.37488 11.2008 9.3972 11.2008 9.3972C11.2008 9.3972 11.3675 9.41952 11.5008 9.48648C11.6341 9.55345 11.7119 9.63157 11.7119 9.63157L11.8008 9.7097L11.8564 9.7655L11.9119 9.79898C11.9119 9.79898 11.9675 9.85479 11.9786 9.77666C11.9897 9.7097 11.9675 9.65389 11.9564 9.64273L11.9008 9.58693L11.6786 9.3972C11.6119 9.33023 11.5675 9.28559 11.5008 9.24095C11.4341 9.19631 11.3341 9.12934 11.2119 9.0847C11.1008 9.04006 11.0341 9.05122 10.923 8.99541C10.8453 8.96193 10.7786 8.93961 10.7341 8.87264C10.723 8.86148 10.6675 8.81684 10.7675 8.83916C10.8675 8.86148 10.9341 8.89497 11.0453 8.91729C11.223 8.96193 11.3341 8.96193 11.5008 9.01773C11.5675 9.04006 11.6564 9.0847 11.6564 9.0847L11.8675 9.17398C11.8675 9.17398 12.1564 9.33023 12.3564 9.34139C12.5564 9.35255 12.723 9.30791 12.7897 9.27443C12.8564 9.25211 12.9786 9.17398 13.0119 9.1405C13.0453 9.10702 13.0675 9.07354 13.0675 9.07354L13.0897 9.01773V8.97309C13.0341 8.90613 12.923 9.0847 12.7453 9.11818C12.5564 9.15166 12.5675 9.17398 12.4453 9.15166C12.3119 9.12934 12.2341 9.09586 12.1341 8.99541C11.9564 8.828 11.8897 8.67175 11.6564 8.57131C11.5564 8.52666 11.3786 8.48202 11.3786 8.48202C11.3786 8.48202 11.1341 8.40389 11.0008 8.32577C10.9008 8.26997 10.6897 8.23648 10.7564 8.1472C10.7897 8.10256 11.0564 8.2588 11.2564 8.28113C11.4008 8.30345 11.5008 8.29229 11.6119 8.29229C11.723 8.29229 11.8786 8.25881 11.9008 8.25881C11.923 8.24764 12.0119 8.2588 12.0897 8.28113C12.1675 8.30345 12.2119 8.33693 12.2897 8.37041C12.3675 8.40389 12.4564 8.4597 12.4786 8.4597L12.523 8.47086L12.5453 8.44854L12.5564 8.42622L12.5453 8.40389L12.5119 8.38157L12.4453 8.33693C12.4453 8.33693 12.3453 8.28113 12.2564 8.19184C12.1675 8.10256 12.0897 8.00211 11.9564 7.95747C11.823 7.91282 11.6675 7.8905 11.6675 7.8905L11.5119 7.87934L11.4453 7.86818C11.4453 7.86818 11.3341 7.8347 11.423 7.81238C11.5119 7.79005 11.5564 7.77889 11.5786 7.77889C11.5897 7.76773 11.7453 7.75657 11.8341 7.79006C11.923 7.82354 12.0675 7.90166 12.0786 7.90166C12.0897 7.91282 12.223 8.01327 12.3675 8.04675C12.5119 8.08023 12.7008 8.09139 12.7008 8.09139L12.7897 8.06907L12.8341 8.05791L12.8675 8.03559L12.8564 7.97979C12.8564 7.97979 12.8564 7.93514 12.7897 7.92398C12.723 7.91282 12.5897 7.8905 12.4675 7.80122C12.3453 7.71193 12.2564 7.62264 12.2564 7.62264C12.2564 7.62264 12.1675 7.54452 11.9897 7.49988C11.823 7.45523 11.7675 7.45523 11.7675 7.45523L11.7119 7.43291L11.5897 7.37711C11.5897 7.37711 11.5341 7.34363 11.4897 7.28782C11.4453 7.23202 11.3786 7.13157 11.5675 7.18738C11.7564 7.24318 11.8008 7.27666 11.8008 7.27666C11.8008 7.27666 11.9008 7.37711 11.9897 7.38827C12.0453 7.39943 12.0897 7.41059 12.123 7.36595C12.1786 7.31014 12.023 7.24318 11.9119 7.16505C11.823 7.10925 11.7341 6.96416 11.7341 6.96416C11.7341 6.96416 11.6675 6.90836 11.7675 6.93068C11.8675 6.953 12.0453 7.06461 12.0453 7.06461C12.0453 7.06461 12.1341 7.10925 12.1786 7.12041C12.2119 7.13157 12.3008 7.18738 12.3453 7.2097C12.3786 7.22086 12.4786 7.24318 12.5453 7.27666C12.6341 7.33247 12.6786 7.42175 12.723 7.45523C12.7675 7.48872 12.8008 7.54452 12.8564 7.55568C12.9119 7.56684 12.923 7.58916 12.9564 7.56684C12.9897 7.54452 13.0008 7.53336 13.0008 7.53336C13.0008 7.53336 13.0119 7.51104 12.9564 7.47755C12.9008 7.44407 12.8341 7.35479 12.8341 7.35479L12.8119 7.31014L12.8008 7.2655L12.7453 7.17622L12.6453 7.03113C12.6453 7.03113 12.4897 6.81907 12.3453 6.74095C12.2119 6.66282 12.1119 6.61818 12.1119 6.61818C12.1119 6.61818 12.0453 6.5847 12.0119 6.56238C11.9564 6.51773 11.9341 6.48425 11.8897 6.42845C11.8341 6.36148 11.8119 6.31684 11.7453 6.24988C11.623 6.12711 11.2453 6.06014 11.3897 5.97086C11.4675 5.92622 11.5675 5.94854 11.6119 5.9597C11.6564 5.97086 11.7564 6.0155 11.8564 6.04898C11.923 6.0713 11.9675 6.0713 12.0341 6.09363C12.1008 6.11595 12.1786 6.12711 12.2119 6.14943C12.2453 6.17175 12.2786 6.21639 12.3008 6.22755C12.3119 6.23872 12.4008 6.3838 12.5564 6.46193C12.7119 6.54005 12.7897 6.59586 12.9453 6.60702C13.0675 6.61818 13.2675 6.57354 13.2675 6.57354C13.2675 6.57354 13.323 6.55122 13.2786 6.49541C13.223 6.43961 13.223 6.42845 13.1786 6.41729C13.0008 6.35032 12.8564 6.37264 12.723 6.23872C12.6675 6.18291 12.6453 6.17175 12.6008 6.08247C12.5564 5.99318 12.5786 5.97086 12.5453 5.91505C12.523 5.85925 12.4675 5.78113 12.4675 5.78113C12.4675 5.78113 12.3008 5.58023 12.123 5.47979C11.9341 5.37934 11.8008 5.27889 11.7786 5.25657C11.7453 5.23425 11.6786 5.14497 11.6786 5.14497L11.623 5.05568L11.5897 4.98872C11.5675 4.86595 11.7897 5.0222 11.9119 5.06684C12.1119 5.1338 12.2119 5.22309 12.4119 5.29005C12.523 5.32354 12.5897 5.32354 12.7008 5.36818C12.8897 5.4463 12.9453 5.63604 13.1453 5.65836C13.2564 5.66952 13.4786 5.71416 13.4341 5.61372C13.3897 5.50211 13.1675 5.50211 13.0564 5.36818C13.0008 5.31238 13.0008 5.25657 12.9453 5.20077C12.8564 5.08916 12.6453 4.98872 12.6453 4.98872C12.6453 4.98872 12.5786 4.93291 12.5008 4.77666C12.4341 4.62041 12.2675 4.5088 11.9675 4.36371C11.7675 4.26327 11.3675 4.24095 11.523 4.1405C11.6119 4.07354 11.6897 4.0847 11.8119 4.11818C11.9341 4.16282 11.9786 4.21863 12.0786 4.26327C12.1786 4.30791 12.223 4.31907 12.2453 4.33023C12.2675 4.34139 12.3453 4.37488 12.3786 4.37488C12.4008 4.38604 12.5675 4.40836 12.6119 4.41952L12.8341 4.47532L13.0119 4.54229C13.0119 4.54229 13.1008 4.57577 13.1564 4.57577C13.2119 4.57577 13.3008 4.55345 13.3008 4.55345L13.3675 4.5088L13.3786 4.48648C13.3786 4.48648 13.4119 4.43068 13.323 4.41952C13.2453 4.40836 13.2008 4.40836 13.1897 4.40836L13.1119 4.38604L13.0786 4.37488C13.0786 4.37488 12.923 4.25211 12.7897 4.1963C12.6453 4.1405 12.623 4.12934 12.623 4.12934L12.5675 4.11818L12.5008 4.10702C12.5008 4.10702 12.4453 4.10702 12.3564 4.02889C12.2675 3.95077 12.2341 3.90613 12.1564 3.828L12.0564 3.72755C12.0564 3.72755 11.9675 3.66059 11.9675 3.60479C11.9786 3.5155 12.1675 3.70523 12.1675 3.70523L12.3008 3.79452C12.3008 3.79452 12.4119 3.87264 12.6119 3.8838C12.8119 3.89496 13.0564 3.828 13.0564 3.828C13.0564 3.828 13.0897 3.80568 13.2008 3.83916C13.3119 3.87264 13.4008 3.93961 13.4008 3.93961L13.4897 4.01773L13.623 4.16282L13.6453 4.15166C13.6564 4.1405 13.7119 4.0847 13.6119 3.96193C13.5119 3.83916 13.3453 3.72755 13.3453 3.72755C13.3453 3.72755 13.123 3.59363 12.9008 3.54898C12.6786 3.50434 12.5786 3.50434 12.5786 3.50434C12.5786 3.50434 12.4119 3.50434 12.3119 3.39273C12.2119 3.28113 12.1453 3.16952 12.1453 3.16952L12.1119 3.01327C12.1119 3.01327 12.0564 2.9463 11.9453 2.90166C11.8453 2.85702 11.7341 2.79005 11.7341 2.79005C11.7341 2.79005 11.5675 2.73425 11.5564 2.65613C11.523 2.51104 11.8341 2.65613 12.0008 2.68961C12.1564 2.72309 12.223 2.77889 12.3786 2.81238C12.5119 2.84586 12.5897 2.85702 12.7341 2.84586C12.8119 2.84586 12.8564 2.8347 12.9341 2.82354C13.0119 2.82354 13.0675 2.81238 13.1453 2.82354C13.2564 2.84586 13.3008 2.90166 13.4119 2.9463C13.4786 2.97979 13.5119 3.01327 13.5897 3.02443C13.6564 3.03559 13.7897 3.08023 13.7675 3.01327L13.7341 2.96863C13.6786 2.8905 13.6119 2.8905 13.5453 2.8347C13.4008 2.72309 13.3341 2.6338 13.1675 2.55568C13.0564 2.49988 12.9897 2.47755 12.8675 2.45523C12.7786 2.44407 12.7119 2.46639 12.623 2.44407C12.523 2.41059 12.4897 2.36595 12.3897 2.31014C12.2341 2.22086 12.1453 2.14273 11.9786 2.07577C11.8675 2.03113 11.6786 1.98648 11.6786 1.98648L11.6008 1.97532L11.5675 1.96416C11.4119 1.90836 11.8453 1.78559 12.0453 1.72979C12.1453 1.70747 12.1897 1.68514 12.2897 1.6963C12.3786 1.70747 12.4786 1.83023 12.5786 1.77443C12.723 1.6963 12.4119 1.48425 12.3119 1.45077C12.1786 1.39497 11.9453 1.43961 11.9453 1.43961L11.4341 1.42845L11.2897 1.40613C11.2897 1.40613 11.2008 1.40613 11.1341 1.328C11.0675 1.24988 10.8119 0.937376 10.523 0.892733C10.223 0.84809 10.1341 0.892733 10.1119 0.870412C9.85637 0.468626 9.5897 0.37934 9.3897 0.189608C9.33414 0.133804 9.24525 0.0110365 9.22303 0.0221972C9.20081 0.0333579 9.16748 0.200769 9.11192 0.345858C9.04525 0.513269 9.0897 0.591394 9.12303 0.658358C9.16748 0.725322 9.22303 0.769965 9.11192 0.836929C9.00081 0.903894 8.85637 0.881572 8.85637 0.881572C8.85637 0.881572 8.73414 0.859251 8.63414 0.803447C8.53414 0.758804 8.32303 0.669519 8.32303 0.669519C8.32303 0.669519 8.12303 0.613715 7.9897 0.624876C7.85637 0.636037 7.84525 0.647197 7.74525 0.658358C7.6897 0.658358 7.66748 0.658358 7.61192 0.669519C7.56748 0.680679 7.51192 0.647197 7.51192 0.703001C7.51192 0.758804 7.62303 0.758804 7.70081 0.792287C7.77859 0.825769 7.95637 0.825769 7.92303 0.870412C7.87859 0.915054 7.71192 0.926215 7.70081 0.915054C7.6897 0.915054 7.57859 0.892733 7.4897 0.892733C7.34525 0.903894 7.33414 0.903894 7.12303 1.00434C7.0897 1.0155 7.10081 1.09363 7.16748 1.0713C7.24525 1.04898 7.35637 1.02666 7.47859 1.02666C7.61192 1.02666 7.6897 1.0713 7.82303 1.10479C7.93414 1.13827 7.94525 1.16059 8.11192 1.18291C8.14526 1.18291 8.21192 1.16059 8.21192 1.20523C8.21192 1.22755 8.16748 1.26104 8.16748 1.26104C8.16748 1.26104 8.06748 1.28336 8.07859 1.31684C8.10081 1.36148 8.1897 1.31684 8.23414 1.31684C8.27859 1.31684 8.34525 1.328 8.33414 1.37264L8.31192 1.40613C8.1897 1.43961 8.12303 1.46193 8.01192 1.50657C7.73414 1.61818 7.62303 1.75211 7.35637 1.88604C7.10081 2.0088 6.6897 2.16505 6.6897 2.16505C6.6897 2.16505 6.56748 2.23202 6.3897 2.27666C6.21192 2.3213 6.20081 2.31014 6.07859 2.33247C5.95637 2.34363 5.90081 2.36595 5.80081 2.42175C5.73414 2.45523 5.70081 2.48872 5.64525 2.54452L5.4897 2.77889L5.40081 2.91282C5.37859 2.95747 5.35637 2.97979 5.34525 3.02443C5.32303 3.08023 5.31192 3.10255 5.30081 3.15836C5.26748 3.29229 5.30081 3.37041 5.32303 3.50434C5.33414 3.53782 5.33414 3.56014 5.34525 3.59363C5.35637 3.62711 5.40081 3.66059 5.40081 3.66059L5.44525 3.67175C5.44525 3.67175 5.60081 3.66059 5.70081 3.63827C5.80081 3.61595 5.94525 3.58247 5.94525 3.58247L6.13414 3.52666L6.25637 3.48202C6.25637 3.48202 6.33414 3.48202 6.34525 3.52666C6.35637 3.56014 6.32303 3.61595 6.32303 3.61595C6.32303 3.61595 6.25637 3.64943 6.20081 3.67175C6.14525 3.69407 6.01192 3.72755 6.00081 3.73872L5.85637 3.78336L5.73414 3.79452C5.73414 3.79452 5.71192 3.80568 5.6897 3.83916C5.66748 3.87264 5.66748 3.87264 5.66748 3.89497C5.6897 3.91729 5.70081 3.93961 5.72303 3.96193C5.76748 3.99541 5.7897 4.01773 5.84525 4.02889C5.92303 4.06238 5.96748 4.05122 6.04525 4.05122C6.15637 4.05122 6.22303 4.02889 6.32303 3.98425C6.41192 3.92845 6.44525 3.92845 6.56748 3.8838C6.60081 3.87264 6.66748 3.86148 6.6897 3.86148C6.90081 3.83916 7.02303 3.87264 7.23414 3.90613C7.44525 3.93961 7.54526 4.00657 7.75637 4.04005C7.97859 4.07354 8.11192 4.1405 8.34525 4.0847C8.45637 4.06238 8.52303 4.00657 8.57859 4.11818C8.63414 4.21863 8.62303 4.27443 8.62303 4.27443C8.62303 4.27443 8.62303 4.34139 8.54525 4.55345C8.46748 4.7655 8.22303 5.29005 8.22303 5.29005L8.05637 5.62488C8.05637 5.62488 7.92303 5.89273 7.61192 6.23872C7.30081 6.5847 7.27859 6.60702 7.27859 6.60702C7.27859 6.60702 7.11192 6.72979 6.94525 6.94184C6.77859 7.15389 6.77859 7.23202 6.62303 7.38827C6.52303 7.48872 6.46748 7.54452 6.34525 7.62264C6.22303 7.70077 6.07859 7.67845 5.6897 7.9463C5.35637 8.18068 5.17859 8.37041 5.15637 8.35925C5.13414 8.34809 5.02303 8.25881 4.97859 8.23648C4.94525 8.21416 4.30081 7.77889 4.30081 7.77889L4.03414 7.60032L3.91192 7.5222L3.8897 7.47755L3.82303 7.38827C3.82303 7.38827 3.72303 7.2655 3.60081 7.16505C3.47859 7.05345 3.34525 6.96416 3.14525 6.91952C2.95637 6.86372 2.83414 6.83023 2.64525 6.8972C2.52303 6.94184 2.45637 6.98648 2.36748 7.07577C2.25637 7.18738 2.23414 7.27666 2.14525 7.41059C2.05637 7.54452 1.96748 7.66729 1.92303 7.73425C1.87859 7.80122 1.7897 7.97979 1.7897 7.97979C1.7897 7.97979 1.56748 8.33693 1.44525 8.57131C1.30081 8.828 1.24525 8.98425 1.11192 9.22979C0.90081 9.62041 0.60081 10.0222 0.523032 10.2008C0.445255 10.3793 0.434144 10.4017 0.434144 10.4017C0.434144 10.4017 0.411921 10.5021 0.40081 10.5691C0.389699 10.636 0.389699 10.7476 0.378588 10.7923C0.367477 10.8481 0.334144 10.9039 0.323032 10.9151C0.311921 10.9262 0.189699 11.1829 0.145255 11.3503C0.10081 11.5177 0.000810191 12.0423 0.123032 12.1093C0.245255 12.1762 1.14525 11.7856 1.26748 11.4061C1.34525 11.1606 1.02303 11.0378 1.11192 10.8146C1.14525 10.7365 1.16748 10.7253 1.22303 10.6472C1.31192 10.5021 1.27859 10.2008 1.44525 9.92175C1.56748 9.72086 1.81192 9.46416 2.14525 9.0847C2.35637 8.85032 2.55637 8.47086 2.55637 8.47086C2.55637 8.47086 2.60081 8.33693 2.6897 8.35925C2.7897 8.38157 2.87859 8.37041 2.87859 8.37041L2.92303 8.40389L3.01192 8.49318L3.14525 8.69407C3.14525 8.69407 3.36748 9.01773 3.44525 9.10702C3.52303 9.19631 3.60081 9.26327 3.71192 9.35256C3.83414 9.46416 3.87859 9.51997 4.03414 9.64273C4.25637 9.82131 4.17859 9.88827 3.8897 9.73202C3.7897 9.67622 3.63414 9.62041 3.51192 9.58693C3.37859 9.55345 2.87859 9.41952 2.62303 9.38604C2.37859 9.35256 2.33414 9.36372 2.33414 9.36372C2.33414 9.36372 2.21192 9.35256 2.06748 9.44184C1.92303 9.53113 1.84525 9.59809 1.84525 9.59809C1.84525 9.59809 1.67859 9.78782 1.66748 9.82131C1.65637 9.85479 1.57859 9.98872 1.57859 9.98872C1.57859 9.98872 1.53414 10.0557 1.52303 10.1338C1.50081 10.2119 1.51192 10.2901 1.51192 10.2901L1.52303 10.4575L1.53414 10.6137C1.53414 10.6137 1.56748 11.0043 1.64525 11.395C1.66748 11.5066 1.6897 11.6851 1.6897 11.6851L1.74525 12.0869C1.74525 12.0869 1.77859 12.511 1.81192 12.6561C1.84525 12.7901 1.86748 12.8012 1.8897 12.8905C1.93414 13.0579 1.85637 13.136 1.93414 13.3369C2.01192 13.5378 2.07859 13.5155 2.15637 13.6383C2.21192 13.7276 2.23414 13.7499 2.27859 13.8615C2.32303 13.9731 2.46748 14.3414 2.63414 14.6093C2.81192 14.8883 3.04525 15.2343 3.20081 15.2008C3.35637 15.1673 3.46748 14.9218 3.46748 14.9218C3.46748 14.9218 3.64525 14.4418 3.53414 13.9731C3.42303 13.4932 2.91192 13.7164 2.84525 13.3704C2.83414 13.2923 2.84525 13.1695 2.84525 13.1695C2.84525 13.1695 2.83414 13.0244 2.81192 12.9798C2.7897 12.9351 2.61192 12.6003 2.54525 12.3213C2.4897 12.1093 2.50081 11.4284 2.45637 11.2387C2.33414 10.7476 2.32303 10.7923 2.3897 10.703C2.46748 10.6137 2.53414 10.636 2.53414 10.636L2.63414 10.6472L2.71192 10.6807C2.71192 10.6807 2.80081 10.7365 2.85637 10.77C2.90081 10.8034 3.05637 10.9262 3.05637 10.9262L3.43414 11.1718C3.43414 11.1718 3.64525 11.2945 3.73414 11.3392C3.82303 11.3838 3.90081 11.4396 3.90081 11.4396L4.00081 11.5066L4.16748 11.6293L4.20081 11.6628L4.22303 11.7075C4.22303 11.7075 4.30081 11.886 4.63414 12.0758C4.90081 12.232 5.13414 12.1874 5.23414 12.3101C5.25637 12.3325 5.44525 12.5892 5.53414 12.7454C5.64525 12.924 5.77859 13.136 5.82303 13.203C5.86748 13.27 6.14525 13.6159 6.14525 13.6159L6.51192 14.0177L6.9897 14.4642L7.42303 14.8325L7.70081 15.0557C7.70081 15.0557 7.94525 15.2901 8.22303 15.4798C8.4897 15.6584 8.50081 15.6807 8.67859 15.8034C8.81192 15.8927 8.9897 16.0155 9.16748 16.1494C9.34525 16.2945 9.54525 16.5624 9.46748 16.6517C9.41192 16.6851 9.31192 16.5401 9.12303 16.3726C8.96748 16.2387 8.8897 16.1718 8.73414 16.0601C8.53414 15.9039 8.43414 15.8258 8.21192 15.6918C8.10081 15.6249 7.90081 15.5021 7.8897 15.5244C7.81192 15.7588 7.82303 15.982 7.83414 16.2722C7.84525 16.4731 7.87859 16.674 7.94525 16.9307C8.00081 17.1762 8.05637 17.3101 8.14526 17.5445C8.23414 17.7789 8.40081 18.1472 8.40081 18.1472L8.65637 18.6606L8.8897 19.0512L9.01192 19.2521L9.05637 19.3191C9.05637 19.3191 9.11192 19.453 9.05637 19.5423C9.00081 19.6316 8.93414 19.8213 8.83414 19.8325C8.73414 19.8548 8.50081 19.8659 8.50081 19.8659L7.17859 19.8436L6.4897 19.7878C6.4897 19.7878 6.41192 19.7432 6.01192 19.7432C5.77859 19.7432 5.5897 19.8436 5.45637 19.8548C5.34525 19.8659 4.80081 19.8213 4.43414 19.9664C4.0897 20.1115 3.93414 20.145 3.81192 20.3682C3.72303 20.5356 4.24525 20.8034 4.67859 20.9039C5.37859 21.0601 5.17859 20.7588 5.44525 20.5691C5.47859 20.5468 5.4897 20.5244 5.52303 20.5133C5.70081 20.4575 5.80081 20.6026 5.97859 20.6026C6.17859 20.6026 6.2897 20.5356 6.4897 20.5021C7.50081 20.3682 9.07859 20.8481 9.07859 20.8481C9.07859 20.8481 9.46748 20.9709 9.64526 20.9374C9.85637 20.8927 9.81192 20.8146 9.87859 20.6918C9.93414 20.5914 9.91192 20.5691 9.92303 20.4575C9.92303 20.3905 9.91192 20.357 9.90081 20.2901C9.85637 20.1003 9.73414 19.8325 9.73414 19.8325C9.73414 19.8325 9.64526 19.6316 9.61192 19.5311C9.56748 19.386 9.52303 19.2968 9.50081 19.1405C9.43414 18.7276 9.44526 18.761 9.44526 18.5267C9.44526 18.1026 9.4897 17.8682 9.60081 17.4552C9.76748 16.8526 10.0786 16.5959 10.3119 16.0155C10.3786 15.8593 10.3786 15.636 10.4564 15.6137C10.5453 15.6026 10.5341 15.8927 10.4897 16.0601C10.3453 16.6405 9.9897 16.886 9.82303 17.4776C9.70081 17.9351 9.63414 18.203 9.66748 18.6718C9.67859 18.9284 9.77859 19.3302 9.77859 19.3302C9.77859 19.3302 9.91192 19.7767 9.97859 19.9441C10.0453 20.1115 10.1786 20.3905 10.1786 20.3905L10.4786 20.9262L10.6341 21.1829C10.6341 21.1829 10.7453 21.2834 10.6897 21.4508C10.6341 21.6182 10.523 21.7186 10.3897 21.8637C10.0119 22.3101 9.13414 22.9686 8.91192 23.1249C8.60081 23.3593 8.61192 23.4262 8.5897 23.4932C8.46748 23.8503 8.11192 23.8615 7.72303 24.2856C7.63414 24.3749 7.40081 24.6204 7.44525 24.8325C7.46748 24.9106 8.42303 25.078 8.97859 24.8436C9.41192 24.6539 9.03414 24.4418 9.15637 24.2298C9.24526 24.0735 9.46748 24.0735 9.56748 23.9396C9.73414 23.7164 9.62303 23.7276 9.76748 23.549C10.2453 22.9686 10.5564 22.6338 11.4119 22.1093C11.4897 22.0646 11.6341 21.9976 11.6341 21.9976C11.6341 21.9976 11.7564 21.9418 11.8008 21.8749C11.8564 21.7856 11.8453 21.7075 11.8453 21.607C11.8453 21.5401 11.8341 21.5066 11.8341 21.4396C11.8341 21.3615 11.8453 21.3168 11.823 21.2387C11.8008 21.1159 11.723 21.0155 11.6786 20.9485C11.6341 20.8927 11.5564 20.7923 11.5119 20.5802C11.4564 20.3682 11.4564 20.1896 11.5453 19.9552C11.6341 19.7209 11.8341 19.5311 11.8341 19.5311L12.3341 19.1963C12.3341 19.1963 12.7675 18.8838 12.9008 18.761C13.0453 18.6383 13.323 18.3816 13.523 18.0914C13.7564 17.7677 13.8786 17.5668 13.9786 17.1762C14.0119 17.0311 14.0453 16.8079 14.0453 16.8079C14.0453 16.8079 14.0453 16.6517 14.1341 16.6405C14.223 16.6293 14.2453 16.6628 14.2453 16.6628C14.2453 16.6628 14.323 16.7075 14.3453 16.9307C14.3564 17.1539 14.2897 17.4106 14.2897 17.4106C14.2897 17.4106 14.223 17.6673 14.2008 17.8235C14.1897 17.924 14.1897 17.9798 14.1897 18.0914C14.1897 18.2811 14.2675 18.4374 14.2675 18.4374C14.2675 18.4374 14.3119 18.4709 14.3119 18.3927C14.3119 18.3034 14.3341 18.1695 14.3675 18.0356C14.4008 17.924 14.423 17.9463 14.4897 17.7566C14.5786 17.511 14.5008 17.5334 14.5453 17.3883C14.5675 17.3213 14.623 17.2543 14.6897 17.2543C14.7564 17.2543 14.7675 17.3436 14.7675 17.3436C14.7675 17.3436 14.8341 17.6338 14.7786 17.9017C14.723 18.1695 14.523 18.5378 14.523 18.5378L14.3675 18.8057C14.3675 18.8057 14.2564 18.9954 14.2119 19.1182C14.1675 19.2521 14.1564 19.3079 14.1786 19.4307C14.2119 19.5646 14.3119 19.7432 14.3675 19.7097C14.4119 19.6762 14.3008 19.5646 14.4341 19.2968C14.5675 19.0289 14.7453 18.8615 14.7453 18.8615C14.7453 18.8615 14.9897 18.5713 15.1008 18.3481C15.2008 18.1472 15.3008 17.8235 15.3008 17.8235C15.3008 17.8235 15.3786 17.5334 15.3564 17.2878C15.3453 17.0534 15.3008 16.9307 15.3008 16.9307L15.2008 16.7521L15.1453 16.6182L15.1675 16.5401C15.1897 16.5289 15.2675 16.5847 15.3341 16.674C15.4008 16.7633 15.4675 16.8749 15.5008 17.0311C15.5341 17.1427 15.5453 17.2432 15.5453 17.3436C15.5453 17.4329 15.5119 17.8012 15.6453 18.0356C15.7008 18.1472 15.8341 18.4039 15.8453 18.2923C15.8675 18.0356 15.7564 17.9128 15.7675 17.6784C15.7786 17.4106 15.8453 17.4776 15.8675 17.3436C15.8897 17.1985 15.923 17.1651 15.9008 16.9753C15.8786 16.7968 15.8008 16.5624 15.8008 16.5624L15.723 16.3838L15.6897 16.3168C15.6897 16.3168 15.7119 16.2834 15.7453 16.2834L16.0119 16.1941C16.0119 16.1941 16.3564 16.0378 16.4897 15.9262C16.6341 15.8258 16.8008 15.6472 16.8008 15.6472C16.8008 15.6472 17.023 15.3682 17.1341 15.1673C17.4008 14.6651 17.4008 14.0289 17.3897 13.7387C17.3786 13.4597 17.3008 13.0914 17.3008 13.0914C17.3008 13.0914 17.2119 12.645 17.2341 12.3548C17.2564 12.0646 17.2786 11.9307 17.2786 11.9307C17.2786 11.9307 17.2675 11.6405 17.5119 11.328C17.7564 11.0155 17.8675 10.8146 17.9119 10.5802C17.9564 10.3793 17.8897 10.0557 17.8008 10.1784ZM10.4453 8.16952C10.4119 8.16952 10.3675 8.12488 10.3675 8.12488C10.3675 8.12488 10.3564 8.11372 10.3897 8.09139C10.423 8.06907 10.4675 8.08023 10.4675 8.08023L10.5008 8.09139L10.5564 8.16952C10.5453 8.203 10.4786 8.18068 10.4453 8.16952ZM10.5786 7.80122C10.5453 7.79006 10.4897 7.75657 10.4897 7.75657C10.4897 7.75657 10.4786 7.73425 10.5119 7.71193C10.5453 7.68961 10.6008 7.70077 10.6008 7.70077L10.6341 7.72309C10.6453 7.73425 10.7008 7.79005 10.7008 7.81238C10.7008 7.84586 10.623 7.81238 10.5786 7.80122ZM10.7008 7.42175C10.6564 7.41059 10.5897 7.36595 10.5897 7.36595C10.5897 7.36595 10.5786 7.34363 10.623 7.3213C10.6675 7.29898 10.7341 7.31014 10.7341 7.31014L10.7786 7.33247C10.8008 7.35479 10.8564 7.41059 10.8564 7.44407C10.8453 7.47755 10.7453 7.43291 10.7008 7.42175ZM10.8008 7.07577C10.7564 7.06461 10.6897 7.01997 10.6897 7.01997C10.6897 7.01997 10.6786 6.99764 10.723 6.97532C10.7675 6.953 10.8341 6.96416 10.8341 6.96416L10.8786 6.98648C10.9008 7.0088 10.9564 7.06461 10.9564 7.09809C10.9453 7.12041 10.8453 7.07577 10.8008 7.07577ZM10.9008 6.66282C10.8453 6.65166 10.7786 6.59586 10.7786 6.59586C10.7786 6.59586 10.7675 6.57354 10.8119 6.54005C10.8564 6.50657 10.9341 6.52889 10.9341 6.52889L10.9786 6.55122C11.0008 6.57354 11.0675 6.6405 11.0675 6.67398C11.0675 6.71863 10.9453 6.66282 10.9008 6.66282ZM10.9675 6.21639C10.9008 6.20523 10.8119 6.13827 10.8119 6.13827C10.8119 6.13827 10.7897 6.10479 10.8564 6.0713C10.9119 6.03782 11.0008 6.04898 11.0008 6.04898L11.0564 6.08247C11.0786 6.10479 11.1564 6.19407 11.1675 6.23872C11.1675 6.28336 11.0341 6.22755 10.9675 6.21639ZM11.0119 5.76997C10.9341 5.7588 10.823 5.66952 10.823 5.66952C10.823 5.66952 10.8008 5.63604 10.8675 5.59139C10.9341 5.54675 11.0453 5.56907 11.0453 5.56907C11.0453 5.56907 11.0786 5.58023 11.1119 5.60255C11.1453 5.63604 11.2341 5.73648 11.2453 5.79229C11.2564 5.84809 11.0897 5.78113 11.0119 5.76997ZM11.0786 5.25657C10.9897 5.24541 10.8675 5.14497 10.8675 5.14497C10.8675 5.14497 10.8453 5.10032 10.923 5.05568C11.0008 4.99988 11.123 5.03336 11.123 5.03336C11.123 5.03336 11.1675 5.04452 11.2008 5.078C11.2341 5.11148 11.3453 5.23425 11.3564 5.29005C11.3564 5.35702 11.1675 5.26773 11.0786 5.25657ZM11.0341 3.18068C10.9675 3.16952 10.8786 3.10255 10.8786 3.10255C10.8786 3.10255 10.8564 3.08023 10.923 3.04675C10.9897 3.01327 11.0786 3.03559 11.0786 3.03559C11.0786 3.03559 11.1119 3.04675 11.1341 3.06907C11.1564 3.09139 11.2453 3.16952 11.2453 3.21416C11.2453 3.24764 11.1008 3.19184 11.0341 3.18068ZM11.2786 3.68291C11.2897 3.72755 11.1341 3.67175 11.0564 3.66059C10.9897 3.64943 10.8897 3.5713 10.8897 3.5713C10.8897 3.5713 10.8675 3.53782 10.9341 3.50434C11.0008 3.4597 11.0897 3.48202 11.0897 3.48202C11.0897 3.48202 11.123 3.49318 11.1564 3.5155C11.1897 3.54898 11.2675 3.63827 11.2786 3.68291ZM10.9564 4.5088C11.023 4.46416 11.1341 4.48648 11.1341 4.48648C11.1341 4.48648 11.1675 4.49764 11.2008 4.51997C11.2341 4.55345 11.323 4.65389 11.3341 4.7097C11.3453 4.7655 11.1786 4.69854 11.1008 4.67622C11.023 4.66505 10.9119 4.57577 10.9119 4.57577C10.9119 4.57577 10.8897 4.55345 10.9564 4.5088ZM11.1008 4.12934C11.023 4.11818 10.9119 4.02889 10.9119 4.02889C10.9119 4.02889 10.8897 3.99541 10.9564 3.95077C11.023 3.90613 11.1341 3.92845 11.1341 3.92845C11.1341 3.92845 11.1675 3.93961 11.2008 3.96193C11.2341 3.99541 11.323 4.09586 11.3341 4.15166C11.3453 4.21863 11.1786 4.15166 11.1008 4.12934ZM11.2453 2.45523C11.3341 2.47755 11.3564 2.53336 11.3119 2.53336C11.2675 2.54452 11.2453 2.54452 11.2119 2.54452C11.1119 2.54452 11.123 2.49988 10.9897 2.56684C10.8564 2.6338 10.9564 2.60032 10.7675 2.66729C10.5897 2.73425 10.6341 2.55568 10.6341 2.55568C10.6341 2.55568 10.6453 2.5222 10.6675 2.43291C10.6897 2.34363 10.8008 2.43291 10.8786 2.43291C11.023 2.43291 11.1453 2.43291 11.2453 2.45523ZM10.7453 1.76327L10.8008 1.79675C10.823 1.81907 10.9008 1.90836 10.9119 1.953C10.923 1.99764 10.7786 1.94184 10.723 1.93068C10.6564 1.91952 10.5675 1.85255 10.5675 1.85255C10.5675 1.85255 10.5453 1.81907 10.6119 1.78559C10.6675 1.74095 10.7453 1.76327 10.7453 1.76327ZM10.3453 1.22755C10.4008 1.19407 10.4897 1.20523 10.4897 1.20523L10.5453 1.23872C10.5675 1.26104 10.6453 1.35032 10.6564 1.39497C10.6675 1.43961 10.523 1.3838 10.4675 1.37264C10.4008 1.36148 10.3119 1.29452 10.3119 1.29452C10.3119 1.29452 10.2897 1.26104 10.3453 1.22755ZM10.2341 8.4597C10.2675 8.43738 10.3119 8.44854 10.3119 8.44854L10.3453 8.4597L10.4008 8.53782C10.4008 8.56014 10.3341 8.52666 10.3008 8.52666C10.2675 8.52666 10.223 8.48202 10.223 8.48202C10.223 8.48202 10.2008 8.47086 10.2341 8.4597ZM5.77859 3.1472C5.74525 3.16952 5.72303 3.18068 5.67859 3.21416C5.62303 3.2588 5.56748 3.37041 5.53414 3.33693C5.4897 3.30345 5.51192 3.18068 5.51192 3.18068C5.51192 3.18068 5.54525 3.09139 5.5897 3.00211C5.64525 2.91282 5.71192 2.91282 5.71192 2.91282C5.77859 2.91282 5.90081 2.95747 5.90081 3.05791C5.91192 3.15836 5.83414 3.11372 5.77859 3.1472ZM6.6897 3.49318C6.6897 3.49318 6.64525 3.50434 6.63414 3.42622C6.62303 3.34809 6.6897 3.33693 6.6897 3.33693C6.6897 3.33693 6.82303 3.26997 6.82303 3.35925C6.83414 3.43738 6.6897 3.49318 6.6897 3.49318ZM7.87859 1.97532C7.87859 1.97532 7.73414 2.2097 7.53414 2.29898C7.33414 2.38827 7.20081 2.43291 6.82303 2.46639C6.76748 2.46639 6.7897 2.43291 6.7897 2.43291C6.7897 2.43291 7.22303 2.31014 7.46748 2.17622C7.60081 2.09809 7.75637 1.99764 7.80081 1.953C7.95637 1.81907 7.87859 1.97532 7.87859 1.97532ZM0.411921 11.6405C0.411921 11.6963 0.345255 11.7968 0.323032 11.7968C0.30081 11.7968 0.256366 11.6963 0.267477 11.6405C0.278588 11.5847 0.289699 11.4284 0.378588 11.4508C0.445255 11.4619 0.411921 11.5847 0.411921 11.6405ZM0.70081 10.3793C0.70081 10.3793 0.60081 10.5914 0.567477 10.5021C0.534144 10.424 0.60081 10.2789 0.60081 10.2789C0.689699 10.2008 0.723032 10.0892 0.767477 10.1338C0.80081 10.1784 0.70081 10.3793 0.70081 10.3793ZM2.07859 8.203C1.97859 8.31461 1.66748 8.90613 1.60081 8.80568C1.53414 8.72756 1.90081 8.16952 1.97859 8.05791C2.05637 7.93514 2.12303 7.95747 2.12303 7.95747L2.14525 7.97979C2.13414 7.97979 2.17859 8.09139 2.07859 8.203ZM2.91192 7.3213C2.91192 7.3213 2.6897 7.36595 2.72303 7.28782C2.76748 7.2097 2.92303 7.17622 2.92303 7.17622C3.04525 7.19854 3.06748 7.2097 3.05637 7.2655C3.06748 7.3213 2.91192 7.3213 2.91192 7.3213ZM3.81192 8.88381C3.71192 8.98425 3.67859 8.85032 3.53414 8.68291C3.3897 8.52666 3.42303 8.39273 3.42303 8.39273H3.44525L3.46748 8.40389L3.52303 8.42622L3.55637 8.4597L3.66748 8.57131C3.71192 8.63827 3.83414 8.86148 3.81192 8.88381ZM2.0897 12.2209C2.05637 12.2209 2.02303 12.1539 2.02303 12.1539C2.02303 12.1539 1.93414 12.02 1.90081 11.9195C1.86748 11.8302 1.85637 11.6851 1.85637 11.6851C1.85637 11.6851 1.83414 11.4954 1.83414 11.4284C1.84525 11.3392 1.84525 11.261 1.85637 11.2164C1.86748 11.1718 1.91192 11.1829 1.91192 11.1829C1.97859 11.1829 1.97859 11.2387 1.97859 11.2387V11.2722C1.97859 11.2722 1.97859 11.4731 1.9897 11.6293C1.9897 11.674 2.11192 12.1762 2.11192 12.1762C2.11192 12.1762 2.13414 12.2209 2.0897 12.2209ZM2.06748 9.87711C1.9897 9.99988 1.93414 9.99988 1.93414 9.99988C1.93414 9.98872 1.91192 9.94407 1.97859 9.81014C2.04525 9.67622 2.11192 9.68738 2.11192 9.68738L2.13414 9.7097C2.13414 9.7097 2.14525 9.75434 2.06748 9.87711ZM2.85637 14.5534C2.87859 14.5088 3.02303 14.6204 3.02303 14.6204C3.07859 14.6316 3.13414 14.732 3.13414 14.732C3.13414 14.732 3.15637 14.8101 3.0897 14.8325C3.02303 14.8659 2.97859 14.799 2.97859 14.799C2.97859 14.799 2.83414 14.5981 2.85637 14.5534ZM3.90081 11.1383C3.74525 11.1048 3.41192 10.8481 3.27859 10.7811C3.14525 10.7142 2.92303 10.6918 3.02303 10.6026C3.03414 10.5914 3.04525 10.5691 3.06748 10.5691C3.0897 10.5691 3.1897 10.6026 3.1897 10.6026L3.43414 10.703C3.44525 10.703 3.56748 10.7588 3.66748 10.8146C3.75637 10.8704 3.91192 10.9709 3.91192 10.9709L3.97859 11.0267C3.97859 11.049 4.05637 11.1718 3.90081 11.1383ZM5.25637 8.91729C5.25637 8.91729 5.06748 9.17398 4.95637 9.33023C4.81192 9.54229 4.63414 9.86595 4.60081 9.83247C4.56748 9.79898 4.75637 9.44184 4.85637 9.25211C4.96748 9.01773 5.13414 8.89497 5.20081 8.87264C5.34525 8.80568 5.25637 8.91729 5.25637 8.91729ZM4.65637 20.0892C4.65637 20.0892 4.65637 20.1338 4.57859 20.1896C4.50081 20.2454 4.46748 20.2119 4.45637 20.2119C4.44525 20.2119 4.36748 20.1673 4.36748 20.1226C4.37859 20.078 4.50081 20.0445 4.50081 20.0445C4.71192 20.0334 4.65637 20.0892 4.65637 20.0892ZM6.37859 20.0222C6.30081 20.011 6.2897 19.9887 6.30081 19.9776C6.30081 19.9664 6.32303 19.9441 6.41192 19.9441C6.50081 19.9441 6.50081 19.9887 6.50081 19.9887C6.50081 20.0222 6.46748 20.0334 6.37859 20.0222ZM8.35637 20.1338C8.1897 20.1784 8.12303 20.1561 7.97859 20.1673C7.85637 20.1784 7.80081 20.1896 7.67859 20.1896C7.46748 20.1896 7.44525 20.2008 7.14525 20.1115C7.0897 20.0892 7.02303 20.0222 7.04525 19.9999C7.06748 19.9664 7.11192 19.9776 7.11192 19.9776C7.11192 19.9776 7.4897 20.0445 7.73414 20.0557C7.91192 20.0668 8.00081 20.078 8.17859 20.0668C8.27859 20.0668 8.22303 20.0557 8.37859 20.0557C8.43414 20.0445 8.40081 20.1226 8.35637 20.1338ZM9.41192 19.8213C9.40081 19.8325 9.33414 19.8548 9.27859 19.8659C9.21192 19.8771 9.24525 19.8213 9.24525 19.8213C9.24525 19.8213 9.2897 19.7543 9.34525 19.7209C9.41192 19.6874 9.44526 19.7209 9.44526 19.7209C9.46748 19.7655 9.42303 19.8101 9.41192 19.8213ZM10.2341 17.6784C10.1564 17.8459 10.1341 17.9017 10.123 18.0579C10.1008 18.2253 10.2008 18.6941 10.0453 18.5155C9.9897 18.4374 9.93414 18.0691 9.97859 17.8905C10.0564 17.4887 10.3786 17.3771 10.2341 17.6784ZM7.9897 24.4976C7.92303 24.5423 8.05637 24.6762 7.84525 24.6651C7.72303 24.6539 7.7897 24.5423 7.80081 24.5311L7.87859 24.4195C7.93414 24.3414 7.96748 24.3302 8.02303 24.2968C8.07859 24.2633 8.12303 24.3526 8.12303 24.3526C8.12303 24.3526 8.14526 24.386 8.14526 24.4307C8.14526 24.4642 8.04526 24.453 7.9897 24.4976ZM9.15637 23.3704L9.05637 23.4485C9.04525 23.4485 8.97859 23.5043 8.95637 23.4709C8.93414 23.4374 8.96748 23.3927 8.96748 23.3816C8.96748 23.3704 9.03414 23.2923 9.0897 23.27C9.14526 23.2365 9.17859 23.27 9.17859 23.27C9.21192 23.3481 9.15637 23.3704 9.15637 23.3704ZM9.67859 3.81684C9.67859 3.81684 9.63414 3.96193 9.54525 3.99541C9.43414 4.02889 9.01192 4.04005 9.00081 4.00657C8.9897 3.97309 9.4897 3.92845 9.67859 3.73872C9.72303 3.69407 9.67859 3.81684 9.67859 3.81684ZM9.52303 3.44854C9.55637 3.39273 9.53414 3.53782 9.53414 3.53782C9.53414 3.53782 9.50081 3.68291 9.42303 3.72755C9.32303 3.78336 9.07859 3.85032 9.05637 3.81684C9.05637 3.79452 9.37859 3.69407 9.52303 3.44854ZM8.83414 1.77443C8.83414 1.77443 8.87859 1.77443 8.94526 1.80791C9.01192 1.85255 9.05637 1.98648 9.05637 1.98648C9.05637 1.98648 9.06748 2.0088 9.01192 2.0088C8.97859 2.0088 8.97859 1.953 8.94526 1.93068C8.90081 1.8972 8.86748 1.88604 8.81192 1.86372C8.75637 1.84139 8.67859 1.87488 8.66748 1.81907C8.66748 1.75211 8.83414 1.77443 8.83414 1.77443ZM8.32303 2.14273C8.32303 2.14273 8.34525 2.07577 8.44526 2.01997C8.53414 1.96416 8.65637 1.96416 8.65637 1.96416C8.65637 1.96416 8.72303 1.96416 8.80081 2.01997C8.87859 2.07577 8.94526 2.2655 8.94526 2.2655C8.94526 2.2655 8.96748 2.38827 8.91192 2.43291C8.85637 2.47755 8.76748 2.39943 8.72303 2.33247C8.66748 2.2655 8.63414 2.24318 8.55637 2.22086C8.46748 2.18738 8.33414 2.28782 8.31192 2.22086C8.31192 2.19854 8.32303 2.14273 8.32303 2.14273ZM8.2897 3.68291C8.22303 3.69407 8.26748 3.62711 8.26748 3.62711C8.26748 3.62711 8.45637 3.54898 8.57859 3.48202C8.77859 3.38157 9.15637 2.97979 9.05637 3.16952C9.01192 3.2588 8.87859 3.37041 8.87859 3.37041C8.87859 3.37041 8.72303 3.59363 8.6897 3.62711C8.54525 3.73872 8.36748 3.67175 8.2897 3.68291ZM6.72303 8.01327L6.73414 7.99095C6.73414 7.99095 7.06748 7.76773 7.5897 7.8347C7.90081 7.87934 8.20081 8.15836 8.15637 8.19184C8.11192 8.22532 8.04525 8.19184 8.02303 8.19184L7.91192 8.13604L7.74525 8.09139C7.74525 8.09139 7.44525 8.02443 7.22303 8.03559C7.00081 8.04675 6.80081 8.12488 6.80081 8.12488C6.80081 8.12488 6.71192 8.16952 6.6897 8.11372C6.67859 8.04675 6.72303 8.01327 6.72303 8.01327ZM7.54526 14.2968C6.77859 13.7052 5.84525 12.4999 5.95637 12.3883C6.05637 12.299 6.43414 12.857 7.00081 13.4709C7.60081 14.1182 8.30081 14.732 8.32303 14.8101C8.36748 14.9441 7.83414 14.52 7.54526 14.2968ZM9.2897 5.9597C8.96748 6.51773 8.52303 6.94184 8.52303 6.94184C8.36748 7.05345 8.46748 6.85255 8.46748 6.85255C8.46748 6.85255 8.90081 6.24988 9.10081 5.82577C9.24526 5.52443 9.33414 5.12264 9.40081 5.04452C9.55637 4.85479 9.47859 5.62488 9.2897 5.9597ZM10.1786 12.0758C9.84525 11.674 9.60081 11.2387 9.52303 10.6918C9.50081 10.5691 9.50081 10.3905 9.61192 10.4128C9.71192 10.424 9.70081 10.6137 9.70081 10.6584C9.73414 10.982 9.86748 11.3057 10.1119 11.6963C10.4564 12.2432 11.0119 12.6673 10.9897 12.7008C10.9341 12.7566 10.3786 12.3213 10.1786 12.0758ZM10.2786 22.511C10.0897 22.6896 9.76748 22.9351 9.76748 22.9351H9.72303V22.8793L9.73414 22.857L9.75637 22.8235L9.77859 22.7901L9.80081 22.7566L9.86748 22.6784L10.023 22.5334L10.1786 22.3883L10.423 22.1427C10.423 22.1427 10.5119 22.0423 10.5453 22.02C10.5786 21.9976 10.6008 21.9753 10.6341 21.953C10.6786 21.9307 10.7341 21.8972 10.7564 21.9195V21.9642C10.7675 21.9976 10.4786 22.3213 10.2786 22.511ZM10.9675 14.2521C10.823 14.3526 10.7675 14.3414 10.6786 14.4418C10.5786 14.5646 10.5453 14.9776 10.4453 14.8101C10.3453 14.6427 10.4119 14.4084 10.5786 14.2298C10.7786 13.9954 11.2119 14.0735 10.9675 14.2521ZM11.4897 21.5959C11.5564 21.5735 11.5897 21.5847 11.5897 21.5847L11.6119 21.6293C11.6119 21.6405 11.523 21.7633 11.4786 21.7633C11.423 21.7521 11.4453 21.6851 11.4453 21.6851C11.4453 21.6851 11.423 21.6182 11.4897 21.5959ZM13.3897 17.0534C13.2897 16.9865 13.4453 16.7856 13.4453 16.6182C13.4453 16.4843 13.423 16.3838 13.423 16.2722C13.423 16.1606 13.5341 16.1271 13.5341 16.1271C13.5564 16.1271 13.6008 16.1494 13.6564 16.261C13.7119 16.3726 13.5675 17.1651 13.3897 17.0534ZM16.7897 13.8615C16.7675 14.3302 16.7453 14.6651 16.4675 15.0222C16.1341 15.4575 15.5564 15.9039 15.6786 15.5468C15.7564 15.3347 16.2675 15.0668 16.4675 14.4753C16.5786 14.1182 16.6008 13.7834 16.6008 13.7834L16.5786 13.1026C16.5786 13.1026 16.5675 13.0468 16.5675 12.9686C16.6008 12.8793 16.6453 12.9463 16.6453 12.9463L16.6675 12.9798C16.6675 13.0021 16.8008 13.5267 16.7897 13.8615Z" fill="white"/>
</g>
<defs>
<clipPath id="clip0_253_1779">
<rect width="18" height="25" fill="white"/>
</clipPath>
</defs>
</svg>
